/* XPM */
static char * config_xpm[] = {
"30 30 154 2",
"  	c None",
". 	c #1C1C1C",
"+ 	c #4C4C4C",
"@ 	c #989898",
"# 	c #B5B5B5",
"$ 	c #959595",
"% 	c #414141",
"& 	c #0E0E0E",
"* 	c #3E3E3E",
"= 	c #777777",
"- 	c #535353",
"; 	c #363636",
"> 	c #7B7B7B",
", 	c #8D8D8D",
"' 	c #4E4E4E",
") 	c #292929",
"! 	c #686868",
"~ 	c #606060",
"{ 	c #282828",
"] 	c #262626",
"^ 	c #565656",
"/ 	c #4B4B4B",
"( 	c #1B1B1B",
"_ 	c #373737",
": 	c #7D7D7D",
"< 	c #919191",
"[ 	c #575757",
"} 	c #C8C8C8",
"| 	c #C4C4C4",
"1 	c #C2C2C2",
"2 	c #C0C0C0",
"3 	c #C1C1C1",
"4 	c #C3C3C3",
"5 	c #C6C6C6",
"6 	c #C9C9C9",
"7 	c #494949",
"8 	c #626262",
"9 	c #B8B8B8",
"0 	c #AEAEAE",
"a 	c #ABABAB",
"b 	c #AAAAAA",
"c 	c #ACACAC",
"d 	c #ADADAD",
"e 	c #B2B2B2",
"f 	c #BCBCBC",
"g 	c #696969",
"h 	c #949494",
"i 	c #A9A9A9",
"j 	c #848484",
"k 	c #818181",
"l 	c #808080",
"m 	c #7F7F7F",
"n 	c #838383",
"o 	c #8C8C8C",
"p 	c #9D9D9D",
"q 	c #B4B4B4",
"r 	c #C5C5C5",
"s 	c #3C3C3C",
"t 	c #AFAFAF",
"u 	c #5E5E5E",
"v 	c #515151",
"w 	c #4A4A4A",
"x 	c #505050",
"y 	c #5F5F5F",
"z 	c #7A7A7A",
"A 	c #9C9C9C",
"B 	c #BBBBBB",
"C 	c #2A2A2A",
"D 	c #212121",
"E 	c #202020",
"F 	c #193F19",
"G 	c #1A541A",
"H 	c #3A3A3A",
"I 	c #B1B1B1",
"J 	c #424242",
"K 	c #0D0D0D",
"L 	c #C7C7C7",
"M 	c #131313",
"N 	c #0A1D0A",
"O 	c #037703",
"P 	c #028902",
"Q 	c #0A0A0A",
"R 	c #064006",
"S 	c #072E07",
"T 	c #081C08",
"U 	c #046404",
"V 	c #0A570A",
"W 	c #909090",
"X 	c #464646",
"Y 	c #232323",
"Z 	c #0C0C0C",
"` 	c #026202",
" .	c #021502",
"..	c #030303",
"+.	c #022802",
"@.	c #008700",
"#.	c #023C02",
"$.	c #017501",
"%.	c #009A00",
"&.	c #091C09",
"*.	c #828282",
"=.	c #9B9B9B",
"-.	c #0B0B0B",
";.	c #011401",
">.	c #001300",
",.	c #004D00",
"'.	c #010101",
").	c #007400",
"!.	c #003A00",
"~.	c #002600",
"{.	c #031603",
"].	c #006100",
"^.	c #012701",
"/.	c #014E01",
"(.	c #272727",
"_.	c #121212",
":.	c #090909",
"<.	c #B3B3B3",
"[.	c #8B8B8B",
"}.	c #3B3B3B",
"|.	c #1F1F1F",
"1.	c #393939",
"2.	c #9A9A9A",
"3.	c #797979",
"4.	c #313131",
"5.	c #929292",
"6.	c #BDBDBD",
"7.	c #B6B6B6",
"8.	c #C8C8C7",
"9.	c #5C5C5C",
"0.	c #C9C8C8",
"a.	c #C9C9C8",
"b.	c #4F4F4F",
"c.	c #404040",
"d.	c #7C7C7C",
"e.	c #434343",
"f.	c #2E2E2E",
"g.	c #737373",
"h.	c #878787",
"i.	c #656565",
"j.	c #6F6F6F",
"k.	c #000000",
"l.	c #676767",
"m.	c #717171",
"n.	c #353535",
"o.	c #A1A1A1",
"p.	c #787878",
"q.	c #A7A7A7",
"r.	c #343434",
"s.	c #333333",
"t.	c #5D5D5D",
"u.	c #6C6C6C",
"v.	c #A4A4A4",
"w.	c #585858",
". + @ # $ % & * = - . ; > , ' & ) ! ~ { ] ^ / ( _ : < [ . _ ",
". } } } } } } | 1 1 2 2 2 3 3 3 3 3 3 3 3 4 | 5 } 6 6 6 6 7 ",
"8 } } } } | 9 0 a a b b b b b a a a a a a c d e f 5 6 6 6 g ",
"h } } } | i , j k l m m m m m m l l l l l k n o p q r 6 6 s ",
"= } } 5 t : u v + / w w w w w w w w w w w + x y z A B } 6 & ",
"C } } 2 < u s { D E E E E E E E E E E E E F G H y o I r 6 J ",
"K } L 9 j v ) M N O O P Q R S T R S T T U P V { v j c 1 6 W ",
"X } L I k + Y Z `  ...+.@.#.$.#.%.#.$. .@.#.&.D + *.a 3 6 =.",
"g } 5 d k + D -.$.;.>.,.,.'.).!.,.~.,.'.@...Q E w l a 3 } ~ ",
"* } 5 b *.+ D -.{.$.].;.].).^./././././.)./.Q D / k a 3 } (.",
"{ } 5 d j v { _.-.Q :.:.:.:.:.:.:.:.:.:.:.-._.(.x n c 3 L H ",
"~ } } <.[.y }.(.D E |.|.|.|.|.|.|.|.|.|.|.E (.1.u [.t 3 } ^ ",
"2.6 6 f A z y v + / w w w w w w w w w w w + x u 3.=.# 4 } 4.",
"5.6 6 r 0 A o j k k l l l l l l l l m m m l *.[.=.0 6.r } ( ",
"+ 6 6 6 3 7.t c a a a a a a a a a a b b b b a 0 # 6.| } } - ",
". 6 6 6 } r 1 3 3 3 3 3 3 3 3 3 3 3 2 2 2 2 2 3 | r } } } *.",
"7 6 6 6 6 6 6 6 6 6 } } } } } } } } } 8.L } } } } } } } } 9.",
"= 6 6 6 6 6 6 6 6 6 6 6 6 6 6 6 6 6 0.a.} } } } } } } } } { ",
"b.6 6 6 6 6 6 6 6 6 6 6 6 6 6 6 6 6 a.} } } } } } } } } } c.",
"Y 6 6 6 6 ] d.e.] d.e.] d.e.] d.e.] d.e.] d.e.] d.e.} } } = ",
"f.6 6 6 6 g.h.i.g.h.i.g.h.i.g.h.i.g.h.i.g.h.i.g.h.i.} } } j.",
"|.} 6 6 6 k.d.e.k.d.e.k.d.e.k.d.e.k.d.e.k.d.e.k.d.e.6 } } ) ",
"] } } 6 ] d.e.] d.e.] d.e.] d.e.] d.e.] d.e.] d.e.6 6 6 } & ",
"l.} 6 6 g.h.i.g.h.i.g.h.i.g.h.i.g.h.i.g.h.i.g.h.i.6 6 6 6 7 ",
"j 6 6 6 k.d.e.k.d.e.k.d.e.k.d.e.k.d.e.k.d.e.k.d.e.6 6 6 6 m.",
"7 6 6 6 6 ] d.e.] d.e.] d.e.] d.e.] d.e.] d.e.] d.e.6 6 6 n.",
"-.6 6 6 6 g.h.i.g.h.i.g.h.i.g.h.i.g.h.i.g.h.i.g.h.i.6 6 6 k.",
"& 6 6 6 6 k.d.e.k.d.e.k.d.e.k.d.e.k.d.e.k.d.e.k.d.e.6 6 6 ; ",
":.6 6 6 6 6 6 6 6 6 6 6 6 6 6 6 6 6 6 6 6 6 6 6 6 6 6 6 6 h.",
"}.x [.o.3.% % 3.A p.C & ' 2.q.g.r.s.8 t.(.{ u.v.p w.. _ d.b "};
