/* XPM */
static char * down_xpm[] = {
"30 29 98 2",
"  	c None",
". 	c #000000",
"+ 	c #010104",
"@ 	c #040411",
"# 	c #000003",
"$ 	c #000001",
"% 	c #0A0925",
"& 	c #23237D",
"* 	c #060619",
"= 	c #11113D",
"- 	c #3535B4",
"; 	c #090924",
"> 	c #000002",
", 	c #151443",
"' 	c #3B3ABA",
") 	c #0A0A25",
"! 	c #171646",
"~ 	c #3F3FBA",
"{ 	c #0B0B25",
"] 	c #191948",
"^ 	c #4242B9",
"/ 	c #1A1B4A",
"( 	c #4343B5",
"_ 	c #0B0B24",
": 	c #1B1B4B",
"< 	c #4242B2",
"[ 	c #0B0B23",
"} 	c #1B1B4D",
"| 	c #3F3FAE",
"1 	c #0A0B22",
"2 	c #1A1A4E",
"3 	c #3A3BAA",
"4 	c #090A21",
"5 	c #19194E",
"6 	c #3737A7",
"7 	c #090920",
"8 	c #010103",
"9 	c #191950",
"0 	c #3434A6",
"a 	c #191852",
"b 	c #3231A5",
"c 	c #090921",
"d 	c #191956",
"e 	c #3030A5",
"f 	c #1A1A5A",
"g 	c #3030A7",
"h 	c #090922",
"i 	c #010105",
"j 	c #1C1B5F",
"k 	c #3232AB",
"l 	c #0A0923",
"m 	c #1E1E65",
"n 	c #3434AF",
"o 	c #05040E",
"p 	c #2E2E75",
"q 	c #4141BB",
"r 	c #0F0F33",
"s 	c #0A0A26",
"t 	c #323195",
"u 	c #7A7BDA",
"v 	c #7171E6",
"w 	c #2B2B8E",
"x 	c #11113F",
"y 	c #020208",
"z 	c #0A0A27",
"A 	c #3837B7",
"B 	c #7979F9",
"C 	c #6F6FEF",
"D 	c #3030A3",
"E 	c #161651",
"F 	c #02020A",
"G 	c #29298F",
"H 	c #6263F3",
"I 	c #5E5EE7",
"J 	c #2B2B94",
"K 	c #1C1B62",
"L 	c #4E4FE2",
"M 	c #4B4BDA",
"N 	c #242481",
"O 	c #0B0B2A",
"P 	c #0E0E34",
"Q 	c #3A3BC0",
"R 	c #3E3ECB",
"S 	c #1F1F6E",
"T 	c #050514",
"U 	c #050515",
"V 	c #2B2A95",
"W 	c #3434B4",
"X 	c #161650",
"Y 	c #010107",
"Z 	c #020207",
"` 	c #1B1B5F",
" .	c #2C2C99",
"..	c #101038",
"+.	c #262671",
"@.	c #0B0B1F",
"#.	c #010108",
"$.	c #101033",
". . . . . . . . . . . . . . . . . . . . . . . . . . . . . . ",
". . . . . . . . . . . . . . + @ # . . . . . . . . . . . . . ",
". . . . . . . . . . . . . $ % & * . . . . . . . . . . . . . ",
". . . . . . . . . . . . . $ = - ; . . . . . . . . . . . . . ",
". . . . . . . . . . . . . > , ' ) . . . . . . . . . . . . . ",
". . . . . . . . . . . . . > ! ~ { . . . . . . . . . . . . . ",
". . . . . . . . . . . . . > ] ^ { . . . . . . . . . . . . . ",
". . . . . . . . . . . . . > / ( _ . . . . . . . . . . . . . ",
". . . . . . . . . . . . . # : < [ . . . . . . . . . . . . . ",
". . . . . . . . . . . . . # } | 1 . . . . . . . . . . . . . ",
". . . . . . . . . . . . . # 2 3 4 . . . . . . . . . . . . . ",
". . . . . . . . . . . . . # 5 6 7 . . . . . . . . . . . . . ",
". . . . . . . . . . . . . 8 9 0 7 . . . . . . . . . . . . . ",
". . . . . . . . . . . . . 8 a b c . . . . . . . . . . . . . ",
". . . . . . . . . . . . . + d e c . . . . . . . . . . . . . ",
". . . . . . . . . . . . . + f g h . . . . . . . . . . . . . ",
". . . . . . . . . . . . . i j k l . . . . . . . . . . . . . ",
". . . . . . . . . . . . . i m n ) . . . . . . . . . . . . . ",
". . . . . . . . . . . . > o p q r # . . . . . . . . . . . . ",
". . . . . . . . . . . . s t u v w x y . . . . . . . . . . . ",
". . . . . . . . . . . . z A B C D E F . . . . . . . . . . . ",
". . . . . . . . . . . . @ G H I J = > . . . . . . . . . . . ",
". . . . . . . . . . . . > K L M N O . . . . . . . . . . . . ",
". . . . . . . . . . . . . P Q R S T . . . . . . . . . . . . ",
". . . . . . . . . . . . . U V W X Y . . . . . . . . . . . . ",
". . . . . . . . . . . . . Z `  .... . . . . . . . . . . . . ",
". . . . . . . . . . . . . . % +.@.. . . . . . . . . . . . . ",
". . . . . . . . . . . . . . #.$.Z . . . . . . . . . . . . . ",
". . . . . . . . . . . . . . . i . . . . . . . . . . . . . . "};
