/* XPM */
static char * front_xpm[] = {
"30 29 70 1",
" 	c None",
".	c #000000",
"+	c #000001",
"@	c #080811",
"#	c #25244A",
"$	c #121225",
"%	c #494892",
"&	c #040408",
"*	c #17172F",
"=	c #5C5AB6",
"-	c #080812",
";	c #1C1B37",
">	c #6865CD",
",	c #101021",
"'	c #1E1D3C",
")	c #6B69D4",
"!	c #181731",
"~	c #1F1E3D",
"{	c #6866D0",
"]	c #1F1E3F",
"^	c #010102",
"/	c #222144",
"(	c #6463CB",
"_	c #2F2D5D",
":	c #030307",
"<	c #2D2B59",
"[	c #4C4A99",
"}	c #5F5DC5",
"|	c #5E5CBE",
"1	c #514F97",
"2	c #0E0D16",
"3	c #191933",
"4	c #5D5CBA",
"5	c #5251A4",
"6	c #5050A6",
"7	c #6765CB",
"8	c #9C99F6",
"9	c #6A678A",
"0	c #242348",
"a	c #6866CE",
"b	c #5654AA",
"c	c #484794",
"d	c #7674D9",
"e	c #C6C2FD",
"f	c #9996AB",
"g	c #0D0C1A",
"h	c #6F6CDB",
"i	c #5E5CBA",
"j	c #434289",
"k	c #8B87E4",
"l	c #E3E1F5",
"m	c #626264",
"n	c #434185",
"o	c #6966D0",
"p	c #ACA9EE",
"q	c #BDBCC1",
"r	c #0E0E0E",
"s	c #121123",
"t	c #6360C1",
"u	c #46458C",
"v	c #C8C6EF",
"w	c #484848",
"x	c #3F3D73",
"y	c #535299",
"z	c #9E9DAB",
"A	c #0D0D0D",
"B	c #0C0C17",
"C	c #3A3970",
"D	c #2F2F36",
"E	c #05050C",
"..............................",
"..............................",
"..............................",
"..............................",
"..............................",
"..............................",
"..............+...............",
".............@#+..............",
".............$%&..............",
".............*=-..............",
".............;>,..............",
".............')!..............",
".............~{]..............",
"............^/(_:.............",
"............<[}|12............",
"...........3456789............",
"...........0abcdef............",
"...........ghijklm............",
"............nojpqr............",
"............stuvw.............",
".............xyzA.............",
".............BCD..............",
"..............E...............",
"..............................",
"..............................",
"..............................",
"..............................",
"..............................",
".............................."};
