/* XPM */
static char * left_xpm[] = {
"30 29 65 1",
" 	c None",
".	c #000000",
"+	c #252525",
"@	c #05040A",
"#	c #0C0B18",
"$	c #15142A",
"%	c #07070E",
"&	c #010102",
"*	c #040406",
"=	c #13131A",
"-	c #282847",
";	c #353469",
">	c #3E3C7A",
",	c #47458D",
"'	c #16152B",
")	c #0A0A15",
"!	c #090913",
"~	c #080811",
"{	c #06060D",
"]	c #06060C",
"^	c #05050C",
"/	c #05050B",
"(	c #020205",
"_	c #000001",
":	c #0B0B10",
"<	c #2A2A41",
"[	c #464579",
"}	c #434287",
"|	c #4F4D9C",
"1	c #5755AE",
"2	c #615FC2",
"3	c #605EBB",
"4	c #615FBB",
"5	c #6160BB",
"6	c #605FBB",
"7	c #5F5DBB",
"8	c #5E5CBA",
"9	c #5D5CB9",
"0	c #605FBC",
"a	c #6160BC",
"b	c #5F5EBA",
"c	c #5D5CB7",
"d	c #5857B1",
"e	c #5452A9",
"f	c #292853",
"g	c #010104",
"h	c #181831",
"i	c #2C2C59",
"j	c #3D3C79",
"k	c #4C4A98",
"l	c #1D1C39",
"m	c #141429",
"n	c #141327",
"o	c #111123",
"p	c #111122",
"q	c #121122",
"r	c #111121",
"s	c #111021",
"t	c #101021",
"u	c #100F1F",
"v	c #0E0E1E",
"w	c #06060E",
"x	c #020204",
"y	c #080810",
"z	c #121224",
".............................+",
".............................+",
".............................+",
".............................+",
".............................+",
".............................+",
".............................+",
".............................+",
".............................+",
".............................+",
".............................+",
".............................+",
"......@#$%...................+",
"..&*=-;>,'#)!~{]]]]]]]]]^/(..+",
"._:<[}|1234567899870aabcdef..+",
".._g)hijklmmmnoopppqqrstuvw..+",
"......xyz{...................+",
".............................+",
".............................+",
".............................+",
".............................+",
".............................+",
".............................+",
".............................+",
".............................+",
".............................+",
".............................+",
".............................+",
".............................+"};
