/* XPM */
static char * rear_xpm[] = {
"30 29 55 1",
" 	c None",
".	c #000000",
"+	c #000001",
"@	c #272736",
"#	c #0A0A0C",
"$	c #232242",
"%	c #6463B1",
"&	c #434264",
"*	c #010102",
"=	c #030306",
"-	c #0F0E1A",
";	c #121221",
">	c #0F0F1B",
",	c #030307",
"'	c #121117",
")	c #7C79B3",
"!	c #131327",
"~	c #212026",
"{	c #AEABEA",
"]	c #1D1D39",
"^	c #222126",
"/	c #BAB7F2",
"(	c #222241",
"_	c #201F26",
":	c #BDBAF5",
"<	c #28274B",
"[	c #1D1C26",
"}	c #BCB9F6",
"|	c #2D2C53",
"1	c #181826",
"2	c #B7B4F6",
"3	c #302E59",
"4	c #141426",
"5	c #AEACF6",
"6	c #302F5A",
"7	c #111123",
"8	c #A2A1F4",
"9	c #31305D",
"0	c #0F0E1E",
"a	c #9593F2",
"b	c #31315E",
"c	c #0C0C19",
"d	c #8583EE",
"e	c #302F5D",
"f	c #0A0A15",
"g	c #7775E5",
"h	c #2E2D5A",
"i	c #090912",
"j	c #6968D5",
"k	c #2C2C58",
"l	c #080811",
"m	c #5755B2",
"n	c #282751",
"o	c #020205",
"p	c #040509",
"..............................",
"..............................",
"..............................",
"..............................",
"..............................",
"..............................",
"..............+@#.............",
".............+$%&*............",
".............=-;>,............",
"..............')!.............",
"..............~{].............",
"..............^/(.............",
".............._:<.............",
"..............[}|.............",
"..............123.............",
"..............456.............",
"..............789.............",
"..............0ab.............",
"..............cde.............",
"..............fgh.............",
"..............ijk.............",
"..............lmn.............",
"..............op,.............",
"..............................",
"..............................",
"..............................",
"..............................",
"..............................",
".............................."};
