/* XPM */
static char * right_xpm[] = {
"30 29 65 1",
" 	c None",
".	c #252525",
"+	c #000000",
"@	c #07070E",
"#	c #15142A",
"$	c #0C0B18",
"%	c #05040A",
"&	c #020205",
"*	c #05050B",
"=	c #05050C",
"-	c #06060C",
";	c #06060D",
">	c #080811",
",	c #090913",
"'	c #0A0A15",
")	c #16152B",
"!	c #47458D",
"~	c #3E3C7A",
"{	c #353469",
"]	c #282847",
"^	c #13131A",
"/	c #040406",
"(	c #010102",
"_	c #292853",
":	c #5452A9",
"<	c #5957B1",
"[	c #5D5CB7",
"}	c #605EBA",
"|	c #6160BC",
"1	c #605FBC",
"2	c #5F5DBB",
"3	c #5E5CBA",
"4	c #5D5CB9",
"5	c #605FBB",
"6	c #6160BB",
"7	c #615FBB",
"8	c #605EBB",
"9	c #615FC2",
"0	c #5755AE",
"a	c #4F4D9C",
"b	c #434287",
"c	c #464579",
"d	c #2A2A41",
"e	c #0B0B10",
"f	c #000001",
"g	c #06060E",
"h	c #0E0E1E",
"i	c #100F1F",
"j	c #101021",
"k	c #111021",
"l	c #111121",
"m	c #121122",
"n	c #111122",
"o	c #111123",
"p	c #141327",
"q	c #141429",
"r	c #1D1C39",
"s	c #4C4A98",
"t	c #3D3C79",
"u	c #2C2C59",
"v	c #181831",
"w	c #010104",
"x	c #121224",
"y	c #080810",
"z	c #020204",
".+++++++++++++++++++++++++++++",
".+++++++++++++++++++++++++++++",
".+++++++++++++++++++++++++++++",
".+++++++++++++++++++++++++++++",
".+++++++++++++++++++++++++++++",
".+++++++++++++++++++++++++++++",
".+++++++++++++++++++++++++++++",
".+++++++++++++++++++++++++++++",
".+++++++++++++++++++++++++++++",
".+++++++++++++++++++++++++++++",
".+++++++++++++++++++++++++++++",
".+++++++++++++++++++++++++++++",
".+++++++++++++++++++@#$%++++++",
".++&*=---------;>,'$)!~{]^/(++",
".++_:<[}||1234432567890abcdef+",
".++ghijklmmnnnoopqqqrstuv'wf++",
".+++++++++++++++++++;xyz++++++",
".+++++++++++++++++++++++++++++",
".+++++++++++++++++++++++++++++",
".+++++++++++++++++++++++++++++",
".+++++++++++++++++++++++++++++",
".+++++++++++++++++++++++++++++",
".+++++++++++++++++++++++++++++",
".+++++++++++++++++++++++++++++",
".+++++++++++++++++++++++++++++",
".+++++++++++++++++++++++++++++",
".+++++++++++++++++++++++++++++",
".+++++++++++++++++++++++++++++",
".+++++++++++++++++++++++++++++"};
