/* XPM */
static char * selection_xpm[] = {
"30 30 51 1",
" 	c None",
".	c #000000",
"+	c #0022FF",
"@	c #000C0C",
"#	c #002626",
"$	c #003939",
"%	c #005050",
"&	c #00B2B2",
"*	c #00ECEC",
"=	c #003F3F",
"-	c #00BDBD",
";	c #00FCFC",
">	c #006E6E",
",	c #007979",
"'	c #00F7F7",
")	c #005B5B",
"!	c #00D9D9",
"~	c #002525",
"{	c #009090",
"]	c #00E4E4",
"^	c #007474",
"/	c #00AEAE",
"(	c #00F6FF",
"_	c #282800",
":	c #676700",
"<	c #777700",
"[	c #4D4D00",
"}	c #101000",
"|	c #8F8F00",
"1	c #E5E500",
"2	c #F5F500",
"3	c #C4C400",
"4	c #585800",
"5	c #FCFC00",
"6	c #A7A700",
"7	c #0A0000",
"8	c #3A0000",
"9	c #6F0000",
"0	c #090000",
"a	c #2A0000",
"b	c #380000",
"c	c #1B0000",
"d	c #A90000",
"e	c #ED0000",
"f	c #C00000",
"g	c #E80000",
"h	c #820000",
"i	c #FC0000",
"j	c #F60000",
"k	c #AA0000",
"l	c #530000",
"..........+...................",
"..........+...................",
"..........+........@#$$#@.....",
"..........+.......@%&**&%@....",
"..........+.......=-;;;;-=....",
"..........+.......>*;;;;*>....",
"..........+.......,';;;;',....",
"..........+.......)!;;;;!)....",
"..........+.......~{]'']{~....",
"..........+........~^//^~.....",
".......(((+(((................",
".......(_:<[}(................",
".......(|1234(................",
"++++++++15526+++++++++++++++++",
".......(15526(................",
".......(|1234(................",
".......(((<(((................",
"..........+...................",
"..........+...................",
"..........+...................",
"..........+........789987.....",
"..0abc....+........8deed8.....",
"..afgh....+........9eiie9.....",
"..bgjk....+........9eiie9.....",
"..chkl....+........8deed8.....",
"..........+........789987.....",
"..........+...................",
"..........+...................",
"..........+...................",
"..........+..................."};
