/* XPM */
static char * toggle_star_labels_xpm[] = {
"30 30 136 2",
"  	c None",
". 	c #000000",
"+ 	c #050400",
"@ 	c #0D0C00",
"# 	c #171400",
"$ 	c #1B1700",
"% 	c #1D1900",
"& 	c #191500",
"* 	c #110E00",
"= 	c #090800",
"- 	c #010000",
"; 	c #070600",
"> 	c #131000",
", 	c #201D00",
"' 	c #2F2900",
") 	c #3D3600",
"! 	c #413800",
"~ 	c #362F00",
"{ 	c #2A2400",
"] 	c #0B0A00",
"^ 	c #241F00",
"/ 	c #5A4F00",
"( 	c #6E6100",
"_ 	c #786A00",
": 	c #746600",
"< 	c #655900",
"[ 	c #4B4200",
"} 	c #312A00",
"| 	c #8A7A00",
"1 	c #A79300",
"2 	c #B49E00",
"3 	c #B19B00",
"4 	c #9A8700",
"5 	c #504600",
"6 	c #2D2800",
"7 	c #151200",
"8 	c #030200",
"9 	c #BAA400",
"0 	c #D8BE00",
"a 	c #E4C900",
"b 	c #E0C600",
"c 	c #CBB300",
"d 	c #A49000",
"e 	c #726500",
"f 	c #221D00",
"g 	c #F2D600",
"h 	c #FADD00",
"i 	c #F8DA00",
"j 	c #E8CC00",
"k 	c #C2AB00",
"l 	c #534900",
"m 	c #FEE000",
"n 	c #FDDF00",
"o 	c #F2D500",
"p 	c #CFB600",
"q 	c #968400",
"r 	c #FBDE00",
"s 	c #EED200",
"t 	c #928100",
"u 	c #001C1C",
"v 	c #005555",
"w 	c #003838",
"x 	c #007171",
"y 	c #DBC100",
"z 	c #B59F00",
"A 	c #7F7000",
"B 	c #494000",
"C 	c #262100",
"D 	c #0F0D00",
"E 	c #00AAAA",
"F 	c #907E00",
"G 	c #605400",
"H 	c #383100",
"I 	c #008D8D",
"J 	c #00FFFF",
"K 	c #00E2E2",
"L 	c #00C6C6",
"M 	c #242504",
"N 	c #1B1F06",
"O 	c #0D1306",
"P 	c #010806",
"Q 	c #000504",
"R 	c #111606",
"S 	c #0F1608",
"T 	c #0D1F11",
"U 	c #051C14",
"V 	c #001916",
"W 	c #001714",
"X 	c #001311",
"Y 	c #000908",
"Z 	c #000706",
"` 	c #001513",
" .	c #001E1B",
"..	c #002824",
"+.	c #002F2A",
"@.	c #00332E",
"#.	c #000F0E",
"$.	c #002622",
"%.	c #003A34",
"&.	c #004942",
"*.	c #00554D",
"=.	c #005A51",
"-.	c #00413A",
";.	c #005D54",
">.	c #00756B",
",.	c #00867B",
"'.	c #008D81",
").	c #00110F",
"!.	c #00221F",
"~.	c #003D38",
"{.	c #006057",
"].	c #008579",
"^.	c #00A597",
"/.	c #00BAAA",
"(.	c #00C1B0",
"_.	c #00534C",
":.	c #007E73",
"<.	c #00AB9C",
"[.	c #00CEBC",
"}.	c #00E1CE",
"|.	c #00E8D4",
"1.	c #000D0C",
"2.	c #001D19",
"3.	c #00635A",
"4.	c #009689",
"5.	c #00C6B5",
"6.	c #00E7D3",
"7.	c #00F7E1",
"8.	c #00FAE4",
"9.	c #00201D",
"0.	c #006C63",
"a.	c #00A496",
"b.	c #00D3C1",
"c.	c #00F2DD",
"d.	c #00FDE7",
"e.	c #00FEE8",
". . . + @ # $ % $ & * = - . . . . . . . . . . . . . . . . . ",
". . ; > , ' ) ! ! ~ { & ] - . . . . . . . . . . . . . . . . ",
". + > ^ ) / ( _ : < [ } $ = - . . . . . . . . . . . . . . . ",
". @ , ) < | 1 2 3 4 _ 5 6 7 8 . . . . . . . . . . . . . . . ",
"+ # ' / | 9 0 a b c d e ! f ] - . . . . . . . . . . . . . . ",
"= $ ) ( 1 0 g h i j k | l { * - . . . . . . . . . . . . . . ",
"] % ! _ 2 a h m n o p q / 6 > - . . . . . . . . . . . . . . ",
"= $ ! : 3 b i n r s c t / { * - u v w . . . u x . . . . . . ",
"; & ~ < 4 c j o s y z A B C D - E . v w E x . E . . . . . . ",
"- * { [ _ d k p c z F G H % ; . v v I E . J . E . . . . . . ",
". = & } 5 e | q t A G ! ^ D - . v v K I v K u L . . . . . . ",
". - ] $ 6 ! l / / B H ^ * 8 . . . . . . . . . . . . . . . . ",
". . - = 7 f { 6 { M N O P Q . . . . . . . . . . . . . . . . ",
". . . - 8 ] * R S T U V W X Y Z . . . . . . . . . . . . . . ",
". . . . . Q Y `  ...+.@.+... .` Y Q . . . . . . . . . . . . ",
". . . . . #.V $.%.&.*.=.*.&.%.$.V #.. . . . . . . . . . . . ",
". . . . Z W ..-.;.>.,.'.,.>.;.-...W Z . . . . . . . . . . . ",
". . . . ).!.~.{.].^./.(./.^.].{.~.!.).. . . . . . . . . . . ",
". . . Q W +._.:.<.[.}.|.}.[.<.:._.+.W Q . . . . . . . . . . ",
". . . 1.2.%.3.4.5.6.7.8.7.6.5.4.3.%.2.1.. . . . . . . . . . ",
". . . #.9.-.0.a.b.c.d.e.d.c.b.a.0.-.9.#.. . . . . . . . . . ",
". . . #.9.-.0.a.b.c.d.e.d.c.b.a.0.-.9.#.. w . u x . . x . . ",
". . . 1.2.%.3.4.5.6.7.8.7.6.5.4.3.%.2.1.w K . . E . x K x w ",
". . . Q W +._.:.<.[.}.|.}.[.<.:._.+.W Q x L w . E . . E . E ",
". . . . ).!.~.{.].^./.(./.^.].{.~.!.).. L . L u L . . E w I ",
". . . . Z W ..-.;.>.,.'.,.>.;.-...W Z . . . . . . . . . . . ",
". . . . . #.V $.%.&.*.=.*.&.%.$.V #.. . . . . . . . . . . . ",
". . . . . Q Y `  ...+.@.+... .` Y Q . . . . . . . . . . . . ",
". . . . . . . Z Y X W V W X Y Z . . . . . . . . . . . . . . ",
". . . . . . . . . Q Z Z Z Q . . . . . . . . . . . . . . . . "};
