/* XPM */
static char * toggle_link_labels_xpm[] = {
"30 30 234 2",
"  	c None",
". 	c #000000",
"+ 	c #000303",
"@ 	c #000606",
"# 	c #000404",
"$ 	c #000101",
"% 	c #000505",
"& 	c #000C0C",
"* 	c #001313",
"= 	c #001818",
"- 	c #001616",
"; 	c #001010",
"> 	c #000808",
", 	c #002626",
"' 	c #003838",
") 	c #004242",
"! 	c #003B3B",
"~ 	c #002A2A",
"{ 	c #000909",
"] 	c #000F0F",
"^ 	c #004747",
"/ 	c #006C6B",
"( 	c #008882",
"_ 	c #00807A",
": 	c #005756",
"< 	c #003030",
"[ 	c #001414",
"} 	c #001515",
"| 	c #003535",
"1 	c #006968",
"2 	c #00ADA3",
"3 	c #00DBC5",
"4 	c #00D0B9",
"5 	c #009089",
"6 	c #004B4B",
"7 	c #002020",
"8 	c #003F3F",
"9 	c #00887E",
"0 	c #00E2C5",
"a 	c #00FBED",
"b 	c #00F1DD",
"c 	c #00AFA3",
"d 	c #005C5C",
"e 	c #002929",
"f 	c #000D0D",
"g 	c #00463B",
"h 	c #00AD76",
"i 	c #00F2B8",
"j 	c #00F6DD",
"k 	c #00DECF",
"l 	c #009B99",
"m 	c #005555",
"n 	c #002525",
"o 	c #001E10",
"p 	c #00862A",
"q 	c #00DE56",
"r 	c #00E986",
"s 	c #00C8A1",
"t 	c #009D97",
"u 	c #007070",
"v 	c #003E3E",
"w 	c #001B1B",
"x 	c #000100",
"y 	c #000901",
"z 	c #006408",
"A 	c #00D318",
"B 	c #00D330",
"C 	c #008E4B",
"D 	c #00655C",
"E 	c #005655",
"F 	c #002323",
"G 	c #000E0E",
"H 	c #000B00",
"I 	c #006500",
"J 	c #00CE01",
"K 	c #00D009",
"L 	c #006C14",
"M 	c #002720",
"N 	c #000900",
"O 	c #006300",
"P 	c #00D800",
"Q 	c #00E900",
"R 	c #007D01",
"S 	c #001406",
"T 	c #020200",
"U 	c #010100",
"V 	c #00CA00",
"W 	c #00D000",
"X 	c #007500",
"Y 	c #001300",
"Z 	c #070700",
"` 	c #040400",
" .	c #000600",
"..	c #005900",
"+.	c #00D100",
"@.	c #006F00",
"#.	c #000F00",
"$.	c #060600",
"%.	c #004200",
"&.	c #00B400",
"*.	c #00E500",
"=.	c #007300",
"-.	c #000700",
";.	c #004A00",
">.	c #00B300",
",.	c #00CC00",
"'.	c #008700",
").	c #001700",
"!.	c #004E00",
"~.	c #00C600",
"{.	c #00E400",
"].	c #001E00",
"^.	c #000200",
"/.	c #00BE00",
"(.	c #00ED00",
"_.	c #008600",
":.	c #555555",
"<.	c #1C1C1C",
"[.	c #383838",
"}.	c #030300",
"|.	c #00C200",
"1.	c #009600",
"2.	c #001B00",
"3.	c #717171",
"4.	c #AAAAAA",
"5.	c #8D8D8D",
"6.	c #C6C6C6",
"7.	c #0B0B00",
"8.	c #0D0D00",
"9.	c #0C0C00",
"0.	c #090900",
"a.	c #020700",
"b.	c #00E300",
"c.	c #007B00",
"d.	c #131300",
"e.	c #191900",
"f.	c #1D1D00",
"g.	c #1E1E00",
"h.	c #1C1C00",
"i.	c #161600",
"j.	c #0E1000",
"k.	c #084000",
"l.	c #03BB00",
"m.	c #00CD00",
"n.	c #171700",
"o.	c #242400",
"p.	c #313100",
"q.	c #3A3A00",
"r.	c #3D3D00",
"s.	c #363600",
"t.	c #2B2E00",
"u.	c #1D4400",
"v.	c #11AA00",
"w.	c #08FF00",
"x.	c #029600",
"y.	c #282800",
"z.	c #3E3E00",
"A.	c #555500",
"B.	c #656500",
"C.	c #696900",
"D.	c #5E6100",
"E.	c #4B7800",
"F.	c #33B800",
"G.	c #1ED800",
"H.	c #0FA700",
"I.	c #062D00",
"J.	c #010000",
"K.	c #020000",
"L.	c #3C3C00",
"M.	c #5F5F00",
"N.	c #818100",
"O.	c #9B9A00",
"P.	c #9FA000",
"Q.	c #90AA00",
"R.	c #71D900",
"S.	c #4DF000",
"T.	c #2EB500",
"U.	c #184000",
"V.	c #0A0C00",
"W.	c #050000",
"X.	c #070000",
"Y.	c #4E4E00",
"Z.	c #7D7D00",
"`.	c #ABAA00",
" +	c #CACA00",
".+	c #D1D900",
"++	c #BDE500",
"@+	c #94ED00",
"#+	c #65C400",
"$+	c #3C6000",
"%+	c #1F2200",
"&+	c #0E0E00",
"*+	c #050500",
"=+	c #080000",
"-+	c #0A0000",
";+	c #5A5A00",
">+	c #8F8F00",
",+	c #C3C300",
"'+	c #E6E700",
")+	c #EFF600",
"!+	c #D8F700",
"~+	c #AADE00",
"{+	c #748C00",
"]+	c #454700",
"^+	c #232300",
"/+	c #101000",
"(+	c #030000",
"_+	c #E6E600",
":+	c #EFF200",
"<+	c #D8E900",
"[+	c #AAB900",
"}+	c #747600",
"|+	c #454500",
"1+	c #040000",
"2+	c #AAAA00",
"3+	c #D1D200",
"4+	c #BDC100",
"5+	c #949500",
"6+	c #1F1F00",
"7+	c #9A9A00",
"8+	c #9F9F00",
"9+	c #909000",
"0+	c #717100",
"a+	c #4D4D00",
"b+	c #2E2E00",
"c+	c #181800",
"d+	c #0A0A00",
"e+	c #5E5E00",
"f+	c #4B4B00",
"g+	c #333300",
"h+	c #0F0F00",
"i+	c #2B2B00",
"j+	c #111100",
"k+	c #080800",
". . . . . . . . . . . . . . . . . . . . . + @ @ @ # $ . . . ",
". . . . . . . . . . . . . . . . . . . . % & * = - ; > $ . . ",
". . . . . . . . . . . . . . . . . . . % * , ' ) ! ~ = { $ . ",
". . . . . . . . . . . . . . . . . . + ] , ^ / ( _ : < [ @ $ ",
". . . . . . . . . . . . . . . . . . @ } | 1 2 3 4 5 6 7 & $ ",
". . . . . . . . . . . . . . . . . . @ = 8 9 0 a b c d e f $ ",
". . . . . . . . . . . . . . . . . . @ - g h i j k l m n f $ ",
". . . . . . . . . . . . . . . . . . # o p q r s t u v w > $ ",
". . . . . . . . . . . . . . . . x . y z A B C D E v F G + . ",
". . . . . . . . . . . . . . . . . H I J K L M e n w G + . . ",
". . . . . . . . . . . . . . . . N O P Q R S & f f > + . . . ",
". . . . . . . . T T U . . . . H O V W X Y $ $ $ $ $ . . . . ",
". . . . . . . . Z ` T . . .  ...P +.@.#.. . . . . . . . . . ",
". . . . . . . . $.U . . .  .%.&.*.=.#.x . . . . . . . . . . ",
". . . . . . . . T . . . -.;.>.,.'.).. . . . x . . . . . . . ",
". . . . . . . x x . .  .!.~.{.'.].^.. . . . . . . . . . . . ",
". . . . . . x x x . -.;./.(._.).^.:.<.. . . . . [.[.. . . . ",
". . }.` ` }.T x .  .;.|.{.1.2.x 3.3.4.. . . . 5.:.6.. . . . ",
"}.$.7.8.8.9.0.` a.%.>.b.c.).^.. 3.6.<.. . . x . :.4.. . . . ",
"7.d.e.f.g.h.i.j.k.l.m.'.).. . [.. 6.. . . . . 4.:.. . . . . ",
"n.o.p.q.r.s.t.u.v.w.x.].^.. . :.4.:.. . 3.. [.4.4.[.. . . . ",
"y.z.A.B.C.D.E.F.G.H.I.^.. . . . . . . . J.J.J.K.K.. . . . . ",
"L.M.N.O.P.Q.R.S.T.U.V.T . . . . . . . . . J.K.W.X.. . . . . ",
"Y.Z.`. +.+++@+#+$+%+&+*+. . . . . . . . . J.K.=+-+. . . . . ",
";+>+,+'+)+!+~+{+]+^+/+$.. . . . . . . . . . (+X.X.. . . . . ",
";+>+,+_+:+<+[+}+|+^+/+$.. . . . . . . . . . (+1+. . . . . . ",
"Y.Z.2+ +3+4+5+B.L.6+&+*+. . . . . . . . . . . . . . . . . . ",
"L.M.N.7+8+9+0+a+b+c+d+T . . . . . . . . . . . . . . . . . . ",
"y.z.A.B.C.e+f+g+g.h+$.. . . . . . . . . . . . . . . . . . . ",
"n.o.p.q.r.s.i+f.j+k+T . . . . . . . . . . . . . . . . . . . "};
