/* XPM */
static char * toggle_links_xpm[] = {
"30 30 205 2",
"  	c None",
". 	c #000000",
"+ 	c #002626",
"@ 	c #003939",
"# 	c #005050",
"$ 	c #00B2B2",
"% 	c #00ECEC",
"& 	c #003F3F",
"* 	c #00BDBD",
"= 	c #00FCFC",
"- 	c #006E6E",
"; 	c #000100",
"> 	c #000702",
", 	c #011105",
"' 	c #018075",
") 	c #00F6F1",
"! 	c #00F7F7",
"~ 	c #007979",
"{ 	c #000601",
"] 	c #031E09",
"^ 	c #084C18",
"/ 	c #0C7223",
"( 	c #0CA051",
"_ 	c #05DBB8",
": 	c #00FBF6",
"< 	c #00D9D9",
"[ 	c #005B5B",
"} 	c #000A02",
"| 	c #031F09",
"1 	c #074616",
"2 	c #0D7B26",
"3 	c #13B037",
"4 	c #15C53E",
"5 	c #16D244",
"6 	c #0AB471",
"7 	c #02E1D7",
"8 	c #03EFEC",
"9 	c #01E1E0",
"0 	c #009090",
"a 	c #002525",
"b 	c #021B08",
"c 	c #085018",
"d 	c #0E8529",
"e 	c #13AE36",
"f 	c #15C33D",
"g 	c #16CA3F",
"h 	c #13B539",
"i 	c #0E882A",
"j 	c #05522D",
"k 	c #09776A",
"l 	c #179880",
"m 	c #09756B",
"n 	c #012625",
"o 	c #010B03",
"p 	c #08551A",
"q 	c #12B238",
"r 	c #16CE40",
"s 	c #16D242",
"t 	c #14BC3B",
"u 	c #109830",
"v 	c #0A5E1D",
"w 	c #04250B",
"x 	c #020D05",
"y 	c #15301A",
"z 	c #2D6839",
"A 	c #020603",
"B 	c #282800",
"C 	c #676700",
"D 	c #707E04",
"E 	c #339522",
"F 	c #16D041",
"G 	c #13B739",
"H 	c #10972F",
"I 	c #0B6620",
"J 	c #053410",
"K 	c #021205",
"L 	c #17351D",
"M 	c #2D6939",
"N 	c #8F8F00",
"O 	c #E5E500",
"P 	c #EEF402",
"Q 	c #9CCB0F",
"R 	c #3B9820",
"S 	c #085219",
"T 	c #042A0D",
"U 	c #011005",
"V 	c #000301",
"W 	c #020503",
"X 	c #16331C",
"Y 	c #2C6537",
"Z 	c #FCFC00",
"` 	c #9CAA04",
" .	c #000902",
"..	c #000200",
"+.	c #16341C",
"@.	c #16321B",
"#.	c #020602",
"$.	c #DAE305",
"%.	c #F9FB01",
"&.	c #EAEF04",
"*.	c #93A40F",
"=.	c #030704",
"-.	c #1A3B20",
";.	c #2E6B3A",
">.	c #2C6738",
",.	c #020402",
"'.	c #030A04",
").	c #133F1B",
"!.	c #6CA926",
"~.	c #D3E108",
"{.	c #F5F500",
"].	c #AABC0F",
"^.	c #43883C",
"/.	c #16391F",
"(.	c #040B06",
"_.	c #1F4727",
":.	c #337540",
"<.	c #2C6638",
"[.	c #122A17",
"}.	c #010402",
"|.	c #0F3115",
"1.	c #309A43",
"2.	c #31A046",
"3.	c #0E2D13",
"4.	c #777700",
"5.	c #07120A",
"6.	c #2E7841",
"7.	c #1F512C",
"8.	c #1E4626",
"9.	c #31703D",
"0.	c #295F34",
"a.	c #0F2414",
"b.	c #000101",
"c.	c #051007",
"d.	c #206A2E",
"e.	c #34A949",
"f.	c #21692D",
"g.	c #041007",
"h.	c #3C9B54",
"i.	c #0B1C0F",
"j.	c #040905",
"k.	c #1D4325",
"l.	c #2F6D3C",
"m.	c #285B32",
"n.	c #0E2112",
"o.	c #010201",
"p.	c #000201",
"q.	c #123C1A",
"r.	c #34A849",
"s.	c #309B44",
"t.	c #2B6F3C",
"u.	c #1D4324",
"v.	c #2F6D3B",
"w.	c #275C32",
"x.	c #0E2011",
"y.	c #0A200E",
"z.	c #288239",
"A.	c #34A94A",
"B.	c #1C5A27",
"C.	c #21562E",
"D.	c #286939",
"E.	c #0A1B0E",
"F.	c #1D4525",
"G.	c #30703D",
"H.	c #0F2312",
"I.	c #040C05",
"J.	c #226D30",
"K.	c #40CE5A",
"L.	c #288138",
"M.	c #07190A",
"N.	c #3A9852",
"O.	c #374023",
"P.	c #39723E",
"Q.	c #445B32",
"R.	c #381E10",
"S.	c #2C190B",
"T.	c #3C7432",
"U.	c #348E3E",
"V.	c #0E2E14",
"W.	c #390302",
"X.	c #8C1D0F",
"Y.	c #933C20",
"Z.	c #A92C18",
"`.	c #9C0C06",
" +	c #390000",
".+	c #2A0000",
"++	c #BC0402",
"@+	c #D01D0C",
"#+	c #781D0C",
"$+	c #6F0000",
"%+	c #E70302",
"&+	c #EE0804",
"*+	c #F10603",
"=+	c #EB0000",
"-+	c #380000",
";+	c #E80000",
">+	c #F60000",
",+	c #AA0000",
"'+	c #ED0000",
")+	c #FC0000",
"!+	c #1B0000",
"~+	c #820000",
"{+	c #530000",
"]+	c #3A0000",
"^+	c #A90000",
". . . . . . . . . . . . . . . . . . . . . . . . . . . . . . ",
". . . . . . . . . . . . . . . . . . . . . . . . . . . . . . ",
". . . . . . . . . . . . . . . . . . . . + @ @ + . . . . . . ",
". . . . . . . . . . . . . . . . . . . # $ % % $ # . . . . . ",
". . . . . . . . . . . . . . . . . . & * = = = = * & . . . . ",
". . . . . . . . . . . . . . . . . . - % = = = = % - . . . . ",
". . . . . . . . . . . . . . . ; > , ' ) = = = = ! ~ . . . . ",
". . . . . . . . . . . . . ; { ] ^ / ( _ : = = = < [ . . . . ",
". . . . . . . . . . . ; } | 1 2 3 4 5 6 7 8 8 9 0 a . . . . ",
". . . . . . . . . . ; b c d e f g h i j k l l m n . . . . . ",
". . . . . . . . . . o p q r s t u v w x y z z y A . . . . . ",
". . . . . . . . B C D E F G H I J K ; A L M M L A . . . . . ",
". . . . . . . . N O P Q R S T U V . . W X Y Y X W . . . . . ",
". . . . . . . . O Z Z P `  .... . . . W +.Y Y @.W . . . . . ",
". . . . . . . #.$.%.Z &.*.. . . . . . =.-.;.>.y ,.. . . . . ",
". . . . . . '.).!.~.{.].^./.. . . . . (._.:.<.[.}.. . . . . ",
". . . . . ; |.1.2.3.4.. 5.6.7.5.. . . (.8.9.0.a.b.. . . . . ",
". . . . . c.d.e.f.g.. . . . /.h.i.. . j.k.l.m.n.o.. . . . . ",
". . . . p.q.r.s.|.; . . . . . i.t./.. j.u.v.w.x.o.. . . . . ",
". . . ; y.z.A.B.'.. . . . . . . 5.C.D.E.F.G.0.H.; . . . . . ",
". . . I.J.K.L.M.. . . . . . . . . . /.N.O.P.Q.R.o.. . . . . ",
". . . S.T.U.V.p.. . . . . . . . . . . W.X.Y.Z.`. +. . . . . ",
". . .+++@+#+}.. . . . . . . . . . . . $+%+&+*+=+$+. . . . . ",
". . -+;+>+,+. . . . . . . . . . . . . $+'+)+)+'+$+. . . . . ",
". . !+~+,+{+. . . . . . . . . . . . . ]+^+'+'+^+]+. . . . . ",
". . . . . . . . . . . . . . . . . . . . ]+$+$+]+. . . . . . ",
". . . . . . . . . . . . . . . . . . . . . . . . . . . . . . ",
". . . . . . . . . . . . . . . . . . . . . . . . . . . . . . ",
". . . . . . . . . . . . . . . . . . . . . . . . . . . . . . ",
". . . . . . . . . . . . . . . . . . . . . . . . . . . . . . "};
