/* XPM */
static char * up_xpm[] = {
"30 29 90 1",
" 	c None",
".	c #000000",
"+	c #0D0D2A",
"@	c #020207",
"#	c #030309",
"$	c #29296C",
"%	c #0A0A26",
"&	c #08081A",
"*	c #2A2A8D",
"=	c #1E1E6B",
"-	c #0C0C2C",
";	c #2D2EA0",
">	c #3130AA",
",	c #060618",
"'	c #000002",
")	c #161650",
"!	c #3535B5",
"~	c #4141D7",
"{	c #10103B",
"]	c #040411",
"^	c #1D1D68",
"/	c #3D3DC6",
"(	c #5556F1",
"_	c #222278",
":	c #000001",
"<	c #08091F",
"[	c #21227A",
"}	c #4949D7",
"|	c #6D6DFB",
"1	c #3232AC",
"2	c #050513",
"3	c #0F0F37",
"4	c #262688",
"5	c #5555E5",
"6	c #8687FD",
"7	c #4140D2",
"8	c #0F0F36",
"9	c #131343",
"0	c #292994",
"a	c #5F5FEA",
"b	c #A7A8FC",
"c	c #504FE6",
"d	c #171752",
"e	c #010105",
"f	c #090920",
"g	c #3A3AA7",
"h	c #5353B5",
"i	c #0C0C1E",
"j	c #03020B",
"k	c #2A2A8E",
"l	c #3232A2",
"m	c #03030A",
"n	c #020209",
"o	c #272788",
"p	c #2E2F9D",
"q	c #262683",
"r	c #2D2D98",
"s	c #020208",
"t	c #25247F",
"u	c #2C2C94",
"v	c #25247E",
"w	c #2D2C92",
"x	c #010106",
"y	c #25257D",
"z	c #2E2E91",
"A	c #26277B",
"B	c #313091",
"C	c #28287B",
"D	c #343494",
"E	c #2A2A7C",
"F	c #383896",
"G	c #2C2C7E",
"H	c #3B3B99",
"I	c #2C2C80",
"J	c #3C3C9A",
"K	c #2C2C81",
"L	c #3A3B9B",
"M	c #020107",
"N	c #2A2A82",
"O	c #37389C",
"P	c #272881",
"Q	c #33339A",
"R	c #010107",
"S	c #24257F",
"T	c #2F2E97",
"U	c #010104",
"V	c #202173",
"W	c #272685",
"X	c #08071C",
"Y	c #08081C",
"..............................",
"..............+@..............",
".............#$%..............",
".............&*=@.............",
".............-;>,.............",
"............')!~{.............",
"............]^/(_:............",
"............<[}|12............",
"............345678............",
"............90abcd............",
"............efghi@............",
".............jklm.............",
".............nopn.............",
".............nqrn.............",
".............stus.............",
".............@vws.............",
".............xyzs.............",
".............xAB@.............",
".............eCDs.............",
".............eEF@.............",
".............eGH@.............",
".............eIJ@.............",
".............xKLM.............",
".............eNOM.............",
".............ePQR.............",
".............eSTx.............",
".............UVWe.............",
".............:XY:.............",
".............................."};
